<?xml version="1.0" encoding="utf-8"?>
<!-- Generator: Adobe Illustrator 22.1.0, SVG Export Plug-In . SVG Version: 6.00 Build 0)  -->
<svg version="1.1" id="Layer_1" xmlns="http://www.w3.org/2000/svg" xmlns:xlink="http://www.w3.org/1999/xlink" x="0px" y="0px"
	 viewBox="0 0 24 16" style="enable-background:new 0 0 24 16;" xml:space="preserve">
<style type="text/css">
	.st0{fill:#888888;}
</style>
<title>hamburger-menu</title>
<desc>Created with Sketch.</desc>
<g>
	<g>
		<path class="st0" d="M4.1,2h16.5c0.7,0,1.2,0.4,1.2,1s-0.5,1-1.2,1H4.1C3.4,4,2.9,3.6,2.9,3S3.4,2,4.1,2z M4.1,7h16.5
			c0.7,0,1.2,0.4,1.2,1s-0.5,1-1.2,1H4.1C3.4,9,2.9,8.6,2.9,8S3.4,7,4.1,7z M4.1,12h16.5c0.7,0,1.2,0.4,1.2,1s-0.5,1-1.2,1H4.1
			c-0.7,0-1.2-0.4-1.2-1S3.4,12,4.1,12z"/>
	</g>
</g>
</svg>
